<?xml version="1.0" encoding="iso-8859-1"?>
<!-- Uploaded to: SVG Repo, www.svgrepo.com, Generator: SVG Repo Mixer Tools -->
<svg version="1.1" id="Layer_1" xmlns="http://www.w3.org/2000/svg" xmlns:xlink="http://www.w3.org/1999/xlink" 
	 viewBox="0 0 512 512" xml:space="preserve">
<rect x="12.8" y="51.2" style="fill:#919CB0;" width="486.4" height="102.4"/>
<path style="fill:#E9EBEF;" d="M12.8,460.8V153.6h486.4v307.2H12.8z"/>
<g>
	<path style="fill:#573A32;" d="M25.6,473.6h460.8c14.14,0,25.6-11.46,25.6-25.6V64c0-14.14-11.46-25.6-25.6-25.6H25.6
		C11.46,38.4,0,49.86,0,64v384C0,462.14,11.46,473.6,25.6,473.6z M25.6,64h460.8v76.8H25.6V64z M25.6,166.4h460.8V448H25.6V166.4z"
		/>
	<circle style="fill:#573A32;" cx="448" cy="102.4" r="12.8"/>
	<circle style="fill:#573A32;" cx="396.8" cy="102.4" r="12.8"/>
	<circle style="fill:#573A32;" cx="345.6" cy="102.4" r="12.8"/>
	<path style="fill:#573A32;" d="M278.298,217.984c-6.929-1.783-13.824,2.449-15.522,9.31l-38.4,153.6
		c-1.698,6.852,2.449,13.798,9.327,15.514c1.05,0.265,2.074,0.393,3.098,0.393c5.751,0,10.974-3.874,12.425-9.702l38.4-153.6
		C289.323,226.654,285.175,219.699,278.298,217.984z"/>
	<path style="fill:#573A32;" d="M203.452,250.274c-3.174-6.34-10.829-8.866-17.178-5.726l-102.4,51.2
		c-4.326,2.176-7.074,6.605-7.074,11.452c0,4.847,2.748,9.276,7.074,11.452l102.4,51.2c1.852,0.913,3.797,1.348,5.726,1.348
		c4.676,0,9.199-2.586,11.452-7.074c3.149-6.323,0.597-14.012-5.726-17.178L118.221,307.2l79.497-39.748
		C204.049,264.286,206.601,256.597,203.452,250.274z"/>
	<path style="fill:#573A32;" d="M428.126,295.757l-102.4-51.2c-1.852-0.913-3.797-1.357-5.726-1.357
		c-4.676,0-9.199,2.586-11.452,7.074c-3.149,6.323-0.597,14.012,5.726,17.178l79.505,39.748l-79.497,39.748
		c-6.323,3.166-8.875,10.846-5.726,17.178c3.174,6.34,10.829,8.866,17.178,5.726l102.4-51.2c4.318-2.176,7.066-6.596,7.066-11.452
		S432.452,297.924,428.126,295.757z"/>
</g>
</svg>