<?xml version="1.0" encoding="iso-8859-1"?>
<!-- Uploaded to: SVG Repo, www.svgrepo.com, Generator: SVG Repo Mixer Tools -->
<svg version="1.1" id="Layer_1" xmlns="http://www.w3.org/2000/svg" xmlns:xlink="http://www.w3.org/1999/xlink" 
	 viewBox="0 0 512.001 512.001" xml:space="preserve">
<path style="fill:#FFDB2D;" d="M340.54,475.684H17.86c-9.864,0-17.86-7.997-17.86-17.86V54.177c0-9.864,7.997-17.86,17.86-17.86
	H340.54c9.864,0,17.86,7.997,17.86,17.86v403.647C358.4,467.688,350.403,475.684,340.54,475.684z"/>
<g>
	<path style="fill:#FF9900;" d="M340.54,36.317H179.2v439.367h161.34c9.864,0,17.86-7.997,17.86-17.86V54.177
		C358.4,44.314,350.403,36.317,340.54,36.317z"/>
	<path style="fill:#FF9900;" d="M225.637,181.582h-92.405c-9.168,0-17.212-6.717-18.218-15.829
		c-1.188-10.773,7.214-19.892,17.749-19.892h92.405c9.168,0,17.212,6.717,18.218,15.829
		C244.574,172.464,236.17,181.582,225.637,181.582z"/>
	<path style="fill:#FF9900;" d="M266.121,274.456H92.748c-9.168,0-17.212-6.717-18.218-15.829
		c-1.188-10.773,7.216-19.892,17.749-19.892h173.373c9.168,0,17.212,6.717,18.218,15.829
		C285.058,265.338,276.654,274.456,266.121,274.456z"/>
	<path style="fill:#FF9900;" d="M266.121,367.331H92.748c-9.168,0-17.212-6.717-18.218-15.829
		c-1.188-10.773,7.216-19.892,17.749-19.892h173.373c9.168,0,17.212,6.717,18.218,15.829
		C285.058,358.212,276.654,367.331,266.121,367.331z"/>
</g>
<g>
	<path style="fill:#FF4F19;" d="M243.386,161.69c-1.005-9.112-9.049-15.829-18.218-15.829H179.2v35.721h46.437
		C236.17,181.582,244.574,172.464,243.386,161.69z"/>
	<path style="fill:#FF4F19;" d="M283.869,254.565c-1.005-9.112-9.049-15.829-18.218-15.829H179.2v35.721h86.921
		C276.654,274.456,285.058,265.338,283.869,254.565z"/>
	<path style="fill:#FF4F19;" d="M283.869,347.439c-1.005-9.112-9.049-15.829-18.218-15.829H179.2v35.721h86.921
		C276.654,367.331,285.058,358.212,283.869,347.439z"/>
</g>
<path style="fill:#B9F7F9;" d="M440.238,454.939l-36.242-88.827c-1.73-2.752-2.731-6.007-2.731-9.497V54.177
	c0-9.864,7.997-17.86,17.86-17.86h75.014c9.864,0,17.86,7.997,17.86,17.86v302.437c0,2.314-0.45,4.606-1.323,6.748l-37.364,91.577
	C467.286,469.713,446.273,469.732,440.238,454.939z"/>
<g>
	<path style="fill:#00D8E0;" d="M494.14,36.317h-38.102v429.705c6.882,0.051,13.792-3.642,16.859-11.083l37.765-91.577
		c0.882-2.142,1.337-4.434,1.337-6.748V54.177C512,44.314,504.003,36.317,494.14,36.317z"/>
	<rect x="401.265" y="98.233" style="fill:#00D8E0;" width="110.735" height="35.721"/>
	<path style="fill:#00D8E0;" d="M401.265,338.754v17.86c0,3.49,1.001,6.746,2.731,9.497l3.413,8.363h98.734l4.534-11.113
		c0.874-2.142,1.323-4.433,1.323-6.746v-17.862H401.265z"/>
</g>
<g>
	<rect x="456.037" y="98.233" style="fill:#00A2A9;" width="55.963" height="35.721"/>
	<path style="fill:#00A2A9;" d="M456.037,338.754v35.721h50.043l4.572-11.087c0.891-2.16,1.349-4.472,1.349-6.808v-17.826H456.037z"
		/>
</g>
</svg>